# xmcd
#
# Track frame offsets:
#  183
#  4233
#  26075
#  64458
#  84215
#  120583
#  150925
#  167663
#  202523
#
# Disc length: 3154 seconds
#
# Revision: 0
# Processed by: cddbd v1.5.1PL2 Copyright (c) Steve Scherf et al.
# Submitted via: Collectorz.com_Music_Collector 6.11
#
DISCID=5f0c5009
DTITLE=Albert King - Thursday Night In San Francisco
DYEAR=1990
DGENRE=Blues
TTITLE0=King - Thompson - San-Ho-Zay
TTITLE1=King - Taub - You Upset Me, Baby
TTITLE2=Aaron Walker - Call It Stormy Monday
TTITLE3=Peter Chatman - Everyday I Have The Blues
TTITLE4=Moore - Brown - Williams - Drifting Blues
TTITLE5=I've Made Nights By Myself
TTITLE6=R.G. Ford - Crosscut Saw
TTITLE7=W. Weldon - I'm Gonna Move To The Outskirts Of Town
TTITLE8=King - Ooh-Ee-Baby
EXTD=
EXTT0=
EXTT1=
EXTT2=
EXTT3=
EXTT4=
EXTT5=
EXTT6=
EXTT7=
EXTT8=
PLAYORDER=
